<?xml version="1.0" encoding="UTF-8" standalone="no"?>
<!DOCTYPE svg PUBLIC "-//W3C//DTD SVG 1.1//EN" "http://www.w3.org/Graphics/SVG/1.1/DTD/svg11.dtd">
<svg version="1.1" xmlns="http://www.w3.org/2000/svg" xmlns:xlink="http://www.w3.org/1999/xlink" preserveAspectRatio="xMidYMid meet" viewBox="-0.9999999999999716 98.99999999999996 604 497.6913352694865" width="600" height="493.69"><defs><path d="M416.39 100.66L424.46 101.48L432.42 102.62L440.29 104.07L448.04 105.82L455.67 107.86L463.19 110.2L470.57 112.83L477.82 115.73L484.92 118.9L491.88 122.34L498.68 126.03L505.32 129.98L511.79 134.18L518.09 138.61L524.2 143.28L530.13 148.17L535.86 153.28L541.39 158.61L546.72 164.14L551.83 169.87L556.72 175.8L561.39 181.91L565.82 188.21L570.02 194.68L573.97 201.32L577.66 208.12L581.1 215.08L584.27 222.18L587.17 229.43L589.8 236.81L592.14 244.33L594.18 251.96L595.93 259.71L597.38 267.58L598.52 275.54L599.34 283.61L599.83 291.76L600 300L599.83 308.24L599.34 316.39L598.52 324.46L597.38 332.42L595.93 340.29L594.18 348.04L592.14 355.67L589.8 363.19L587.17 370.57L584.27 377.82L581.1 384.92L577.66 391.88L573.97 398.68L570.02 405.32L565.82 411.79L561.39 418.09L556.72 424.2L551.83 430.13L546.72 435.86L541.39 441.39L538.58 444.1L538.24 452.7L538.19 454.3L538.14 455.9L538.11 457.5L538.08 459.11L538.07 460.71L538.08 462.31L538.09 463.91L538.11 465.51L538.15 467.12L538.2 468.72L538.26 470.32L538.33 471.91L538.41 473.51L538.5 475.11L538.61 476.71L538.73 478.3L538.86 479.9L539 481.49L539.15 483.08L539.31 484.68L539.49 486.27L539.68 487.86L539.88 489.44L540.09 491.03L540.31 492.61L540.54 494.2L540.79 495.78L541.04 497.36L541.31 498.94L541.59 500.51L541.88 502.09L542.18 503.66L542.5 505.23L542.82 506.8L543.16 508.36L543.51 509.93L543.87 511.49L544.24 513.05L544.62 514.61L545.02 516.16L545.22 516.92L545.42 517.67L545.63 518.42L545.85 519.17L546.08 519.91L546.31 520.66L546.55 521.4L546.79 522.14L547.05 522.87L547.3 523.6L547.57 524.34L547.84 525.06L548.12 525.79L548.41 526.51L548.7 527.23L549 527.95L549.3 528.66L549.62 529.38L549.94 530.09L550.26 530.79L550.59 531.49L550.93 532.19L551.27 532.89L551.63 533.58L551.98 534.27L552.35 534.96L552.72 535.64L553.09 536.32L553.47 537L553.86 537.68L554.26 538.35L554.66 539.01L555.07 539.68L555.48 540.33L555.9 540.99L556.33 541.64L556.76 542.29L557.2 542.94L557.64 543.58L558.09 544.21L591.12 590.45L591.2 590.57L591.27 590.69L591.33 590.82L591.38 590.94L591.43 591.07L591.46 591.2L591.48 591.32L591.5 591.45L591.51 591.58L591.51 591.7L591.5 591.83L591.48 591.95L591.46 592.07L591.43 592.19L591.39 592.31L591.35 592.42L591.3 592.53L591.24 592.64L591.17 592.75L591.1 592.85L591.03 592.94L590.95 593.04L590.86 593.12L590.77 593.21L590.68 593.28L590.58 593.35L590.47 593.42L590.36 593.48L590.25 593.53L590.14 593.58L590.02 593.62L589.89 593.65L589.77 593.67L589.64 593.68L589.51 593.69L589.38 593.69L589.24 593.68L589.1 593.66L588.96 593.63L588.82 593.59L541.36 578.26L539.56 577.68L537.76 577.08L535.97 576.48L534.18 575.88L532.39 575.26L530.61 574.64L528.82 574L527.04 573.37L525.27 572.72L523.49 572.06L521.72 571.4L519.95 570.73L518.19 570.05L516.43 569.37L514.67 568.68L512.91 567.98L511.16 567.27L509.41 566.55L507.66 565.83L505.92 565.1L504.18 564.36L502.44 563.62L500.71 562.86L498.98 562.1L497.25 561.33L495.53 560.56L493.81 559.77L492.09 558.98L490.38 558.18L488.67 557.38L486.96 556.57L485.26 555.74L483.56 554.92L481.86 554.08L480.17 553.24L478.48 552.39L476.79 551.53L475.11 550.67L473.43 549.79L471.76 548.91L471.08 548.56L469.67 547.8L468.26 547.04L466.86 546.27L465.47 545.48L464.08 544.69L462.7 543.88L461.32 543.07L459.95 542.24L458.59 541.41L457.23 540.57L455.88 539.71L454.54 538.85L453.2 537.97L451.87 537.09L450.55 536.19L449.24 535.29L447.93 534.37L446.62 533.45L445.33 532.52L444.04 531.57L442.76 530.62L441.48 529.66L440.22 528.69L438.96 527.71L437.71 526.71L436.46 525.71L435.22 524.7L433.99 523.69L432.77 522.66L431.56 521.62L430.35 520.57L429.15 519.52L427.96 518.45L426.77 517.38L425.6 516.3L424.43 515.2L423.27 514.1L422.11 512.99L420.97 511.87L419.83 510.75L408.88 499.79L408.24 499.83L400 500L200 500L191.76 499.83L183.61 499.34L175.54 498.52L167.58 497.38L159.71 495.93L151.96 494.18L144.33 492.14L136.81 489.8L129.43 487.17L122.18 484.27L115.08 481.1L108.12 477.66L101.32 473.97L94.68 470.02L88.21 465.82L81.91 461.39L75.8 456.72L69.87 451.83L64.14 446.72L58.61 441.39L53.28 435.86L48.17 430.13L43.28 424.2L38.61 418.09L34.18 411.79L29.98 405.32L26.03 398.68L22.34 391.88L18.9 384.92L15.73 377.82L12.83 370.57L10.2 363.19L7.86 355.67L5.82 348.04L4.07 340.29L2.62 332.42L1.48 324.46L0.66 316.39L0.17 308.24L0 300L0.17 291.76L0.66 283.61L1.48 275.54L2.62 267.58L4.07 259.71L5.82 251.96L7.86 244.33L10.2 236.81L12.83 229.43L15.73 222.18L18.9 215.08L22.34 208.12L26.03 201.32L29.98 194.68L34.18 188.21L38.61 181.91L43.28 175.8L48.17 169.87L53.28 164.14L58.61 158.61L64.14 153.28L69.87 148.17L75.8 143.28L81.91 138.61L88.21 134.18L94.68 129.98L101.32 126.03L108.12 122.34L115.08 118.9L122.18 115.73L129.43 112.83L136.81 110.2L144.33 107.86L151.96 105.82L159.71 104.07L167.58 102.62L175.54 101.48L183.61 100.66L191.76 100.17L200 100L400 100L408.24 100.17L416.39 100.66ZM193.82 150.13L187.71 150.5L181.66 151.11L175.68 151.96L169.79 153.05L163.97 154.36L158.25 155.9L152.61 157.65L147.07 159.62L141.64 161.8L136.31 164.17L131.09 166.75L125.99 169.53L121.01 172.49L116.16 175.63L111.44 178.96L106.85 182.46L102.41 186.13L98.11 189.96L93.96 193.95L89.96 198.1L86.13 202.4L82.46 206.85L78.96 211.44L75.63 216.16L72.49 221.01L69.53 225.99L66.75 231.09L64.18 236.31L61.8 241.64L59.62 247.07L57.65 252.61L55.9 258.24L54.36 263.97L53.05 269.79L51.97 275.68L51.11 281.66L50.5 287.71L50.13 293.82L50 300L50.13 306.18L50.5 312.29L51.11 318.34L51.97 324.32L53.05 330.21L54.36 336.03L55.9 341.76L57.65 347.39L59.62 352.93L61.8 358.36L64.18 363.69L66.75 368.91L69.53 374.01L72.49 378.99L75.63 383.84L78.96 388.56L82.46 393.15L86.13 397.6L89.96 401.9L93.96 406.05L98.11 410.04L102.41 413.87L106.85 417.54L111.44 421.04L116.16 424.37L121.01 427.51L125.99 430.47L131.09 433.25L136.31 435.83L141.64 438.2L147.07 440.38L152.61 442.35L158.25 444.1L163.97 445.64L169.79 446.95L175.68 448.04L181.66 448.89L187.71 449.5L193.82 449.87L200 450L400 450L406.18 449.87L412.29 449.5L418.34 448.89L424.32 448.04L430.21 446.95L436.03 445.64L441.75 444.1L447.39 442.35L452.93 440.38L458.36 438.2L463.69 435.83L468.91 433.25L474.01 430.47L478.99 427.51L483.84 424.37L488.56 421.04L493.15 417.54L497.59 413.87L501.89 410.04L506.04 406.05L510.04 401.9L513.87 397.6L517.54 393.15L521.04 388.56L524.37 383.84L527.51 378.99L530.47 374.01L533.25 368.91L535.82 363.69L538.2 358.36L540.38 352.93L542.35 347.39L544.1 341.76L545.64 336.03L546.95 330.21L548.03 324.32L548.89 318.34L549.5 312.29L549.87 306.18L550 300L549.87 293.82L549.5 287.71L548.89 281.66L548.03 275.68L546.95 269.79L545.64 263.97L544.1 258.24L542.35 252.61L540.38 247.07L538.2 241.64L535.82 236.31L533.25 231.09L530.47 225.99L527.51 221.01L524.37 216.16L521.04 211.44L517.54 206.85L513.87 202.4L510.04 198.1L506.04 193.95L501.89 189.96L497.59 186.13L493.15 182.46L488.56 178.96L483.84 175.63L478.99 172.49L474.01 169.53L468.91 166.75L463.69 164.17L458.36 161.8L452.93 159.62L447.39 157.65L441.75 155.9L436.03 154.36L430.21 153.05L424.32 151.96L418.34 151.11L412.29 150.5L406.18 150.13L400 150L200 150L193.82 150.13ZM400.56 165.11L406.06 165.45L411.51 166L416.88 166.77L422.19 167.74L427.42 168.93L432.58 170.31L437.65 171.89L442.63 173.66L447.53 175.62L452.32 177.76L457.02 180.08L461.61 182.57L466.09 185.24L470.46 188.07L474.71 191.06L478.83 194.21L482.84 197.51L486.71 200.96L490.44 204.56L494.03 208.29L497.49 212.16L500.79 216.16L503.94 220.29L506.93 224.54L509.76 228.91L512.43 233.39L514.92 237.98L517.24 242.68L519.38 247.47L521.34 252.36L523.11 257.35L524.69 262.42L526.07 267.57L527.25 272.81L528.23 278.11L529 283.49L529.55 288.93L529.89 294.44L530 300L529.89 305.56L529.55 311.07L529 316.51L528.23 321.89L527.25 327.19L526.07 332.43L524.69 337.58L523.11 342.65L521.34 347.64L519.38 352.53L517.24 357.32L514.92 362.02L512.43 366.61L509.76 371.09L506.93 375.46L503.94 379.71L500.79 383.84L497.49 387.84L494.03 391.71L490.44 395.44L486.71 399.04L482.84 402.49L478.83 405.79L474.71 408.94L470.46 411.93L466.09 414.76L461.61 417.43L457.02 419.92L452.32 422.24L447.53 424.38L442.63 426.34L437.65 428.11L432.58 429.69L427.42 431.07L422.19 432.26L416.88 433.23L411.51 434L406.06 434.55L400.56 434.89L400 434.9L400 435L200 435L200 434.9L199.44 434.89L193.94 434.55L188.49 434L183.12 433.23L177.81 432.26L172.58 431.07L167.42 429.69L162.35 428.11L157.37 426.34L152.47 424.38L147.68 422.24L142.98 419.92L138.39 417.43L133.91 414.76L129.54 411.93L125.29 408.94L121.17 405.79L117.16 402.49L113.29 399.04L109.56 395.44L105.97 391.71L102.51 387.84L99.21 383.84L96.06 379.71L93.07 375.46L90.24 371.09L87.57 366.61L85.08 362.02L82.76 357.32L80.62 352.53L78.66 347.64L76.89 342.65L75.31 337.58L73.93 332.43L72.75 327.19L71.77 321.89L71 316.51L70.45 311.07L70.11 305.56L70 300L70.11 294.44L70.45 288.93L71 283.49L71.77 278.11L72.75 272.81L73.93 267.57L75.31 262.42L76.89 257.35L78.66 252.36L80.62 247.47L82.76 242.68L85.08 237.98L87.57 233.39L90.24 228.91L93.07 224.54L96.06 220.29L99.21 216.16L102.51 212.16L105.97 208.29L109.56 204.56L113.29 200.96L117.16 197.51L121.17 194.21L125.29 191.06L129.54 188.07L133.91 185.24L138.39 182.57L142.98 180.08L147.68 177.76L152.47 175.62L157.37 173.66L162.35 171.89L167.42 170.31L172.58 168.93L177.81 167.74L183.12 166.77L188.49 166L193.94 165.45L199.44 165.11L200 165.1L200 165L400 165L400 165.1L400.56 165.11ZM196.13 215.09L193.03 215.28L189.6 215.63L186.22 216.11L182.88 216.73L179.58 217.47L176.34 218.34L173.14 219.34L170 220.45L166.92 221.68L163.9 223.03L160.95 224.49L158.06 226.06L155.24 227.74L152.49 229.52L149.81 231.41L147.21 233.39L144.69 235.47L142.26 237.64L139.9 239.91L137.64 242.26L135.47 244.7L133.39 247.21L131.41 249.81L129.52 252.49L127.74 255.24L126.06 258.06L124.49 260.95L123.03 263.91L121.68 266.93L120.45 270.01L119.33 273.15L118.34 276.34L117.47 279.58L116.72 282.88L116.11 286.22L115.63 289.61L115.28 293.03L115.07 296.5L115 300L115.07 303.5L115.28 306.97L115.63 310.39L116.11 313.78L116.72 317.12L117.47 320.42L118.34 323.66L119.33 326.85L120.45 329.99L121.68 333.07L123.03 336.09L124.49 339.05L126.06 341.94L127.74 344.76L129.52 347.51L131.41 350.19L133.39 352.79L135.47 355.3L137.64 357.74L139.9 360.09L142.26 362.36L144.69 364.53L147.21 366.61L149.81 368.59L152.49 370.48L155.24 372.26L158.06 373.94L160.95 375.51L163.9 376.97L166.92 378.32L170 379.55L173.14 380.66L176.34 381.66L179.58 382.53L182.88 383.27L186.22 383.89L189.6 384.37L193.03 384.72L196.13 384.91L196.13 385L396.13 385L396.13 384.91L396.49 384.93L400 385L403.5 384.93L406.96 384.72L410.39 384.37L413.77 383.89L417.12 383.27L420.41 382.53L423.66 381.66L426.85 380.66L429.99 379.55L433.07 378.32L436.09 376.97L439.04 375.51L441.93 373.94L444.76 372.26L447.51 370.48L450.18 368.59L452.78 366.61L455.3 364.53L457.74 362.36L460.09 360.09L462.35 357.74L464.52 355.3L466.6 352.79L468.59 350.19L470.47 347.51L472.25 344.76L473.93 341.94L475.5 339.05L476.96 336.09L478.31 333.07L479.54 329.99L480.66 326.85L481.65 323.66L482.52 320.42L483.27 317.12L483.88 313.78L484.36 310.39L484.71 306.97L484.92 303.5L485 300L484.92 296.5L484.71 293.03L484.36 289.61L483.88 286.22L483.27 282.88L482.52 279.58L481.65 276.34L480.66 273.15L479.54 270.01L478.31 266.93L476.96 263.91L475.5 260.95L473.93 258.06L472.25 255.24L470.47 252.49L468.59 249.81L466.6 247.21L464.52 244.7L462.35 242.26L460.09 239.91L457.74 237.64L455.3 235.47L452.78 233.39L450.18 231.41L447.51 229.52L444.76 227.74L441.93 226.06L439.04 224.49L436.09 223.03L433.07 221.68L429.99 220.45L426.85 219.34L423.66 218.34L420.41 217.47L417.12 216.73L413.77 216.11L410.39 215.63L406.96 215.28L403.5 215.07L400 215L396.49 215.07L396.13 215.09L396.13 215L196.13 215L196.13 215.09Z" id="a66QWhANbt"></path></defs><g><g><use xlink:href="#a66QWhANbt" opacity="1" fill="#ffffff" fill-opacity="1"></use></g></g></svg>